<?xml version="1.0" encoding="iso-8859-1"?>
<svg version="1.1" id="Layer_1"
  xmlns="http://www.w3.org/2000/svg"
  xmlns:xlink="http://www.w3.org/1999/xlink" x="0px" y="0px" viewBox="0 0 512 512" style="enable-background:new 0 0 512 512;" xml:space="preserve">
  <path style="fill:#C7CFE2;" d="M317.793,503.172H194.207c-102.216,0-185.379-83.164-185.379-185.379V194.207
  C8.828,91.991,91.991,8.828,194.207,8.828h123.586c102.216,0,185.379,83.164,185.379,185.379v123.586
  C503.172,420.009,420.009,503.172,317.793,503.172z M194.207,26.483c-92.482,0-167.724,75.242-167.724,167.724v123.586
  c0,92.483,75.242,167.724,167.724,167.724h123.586c92.483,0,167.724-75.242,167.724-167.724V194.207
  c0-92.482-75.242-167.724-167.724-167.724H194.207z"/>
  <path style="fill:#EFF2FA;" d="M256,35.31C134.116,35.31,35.31,134.116,35.31,256S134.116,476.69,256,476.69
  S476.69,377.884,476.69,256S377.884,35.31,256,35.31z M256,379.586c-68.255,0-123.586-55.331-123.586-123.586
  S187.745,132.414,256,132.414S379.586,187.745,379.586,256S324.255,379.586,256,379.586z"/>
  <g>
    <path style="fill:#D2555A;" d="M282.483,0h-52.966c-4.875,0-8.828,3.953-8.828,8.828v44.138h70.621V8.828
    C291.31,3.953,287.358,0,282.483,0z"/>
    <path style="fill:#D2555A;" d="M220.69,467.862v35.31c0,4.875,3.953,8.828,8.828,8.828h52.966c4.875,0,8.828-3.953,8.828-8.828
    v-35.31H220.69z"/>
    <path style="fill:#D2555A;" d="M8.828,220.69c-4.875,0-8.828,3.953-8.828,8.828v52.966c0,4.875,3.953,8.828,8.828,8.828h35.31
    V220.69H8.828z"/>
    <path style="fill:#D2555A;" d="M503.172,220.69h-35.31v70.621h35.31c4.875,0,8.828-3.953,8.828-8.828v-52.966
    C512,224.642,508.047,220.69,503.172,220.69z"/>
  </g>
  <path style="fill:#D7DEED;" d="M256,105.931c-82.881,0-150.069,67.188-150.069,150.069S173.119,406.069,256,406.069
  S406.069,338.881,406.069,256S338.881,105.931,256,105.931z M256,379.586c-68.255,0-123.586-55.331-123.586-123.586
  S187.745,132.414,256,132.414S379.586,187.745,379.586,256S324.255,379.586,256,379.586z"/>
  <g>
    <path style="fill:#FF6464;" d="M50.49,175.583C40.728,200.509,35.31,227.614,35.31,256s5.418,55.491,15.18,80.417l90.5-35.414
    c-5.469-13.96-8.577-29.105-8.577-45.003s3.108-31.043,8.576-45.004L50.49,175.583z"/>
    <path style="fill:#FF6464;" d="M461.51,336.416c9.762-24.926,15.18-52.03,15.18-80.416s-5.418-55.491-15.18-80.417l-90.5,35.413
    c5.469,13.961,8.577,29.106,8.577,45.004s-3.108,31.043-8.576,45.004L461.51,336.416z"/>
    <path style="fill:#FF6464;" d="M336.417,50.49C311.491,40.728,284.386,35.31,256,35.31s-55.491,5.418-80.417,15.18l35.414,90.5
    c13.96-5.469,29.105-8.577,45.003-8.577s31.043,3.108,45.004,8.576L336.417,50.49z"/>
    <path style="fill:#FF6464;" d="M175.584,461.51c24.926,9.762,52.03,15.18,80.416,15.18s55.491-5.418,80.417-15.18l-35.413-90.5
    c-13.961,5.469-29.106,8.577-45.004,8.577s-31.043-3.108-45.004-8.576L175.584,461.51z"/>
  </g>
  <g>
    <path style="fill:#D2555A;" d="M256,105.931c-19.305,0-37.696,3.775-54.647,10.414l9.644,24.644
    c13.96-5.468,29.105-8.576,45.003-8.576s31.043,3.108,45.004,8.576l9.644-24.644C293.696,109.706,275.305,105.931,256,105.931z"/>
    <path style="fill:#D2555A;" d="M256,406.069c19.305,0,37.696-3.775,54.647-10.414l-9.644-24.644
    c-13.96,5.468-29.105,8.576-45.003,8.576s-31.043-3.108-45.004-8.576l-9.643,24.644C218.304,402.294,236.695,406.069,256,406.069z" />
    <path style="fill:#D2555A;" d="M406.069,256c0-19.305-3.775-37.696-10.414-54.647l-24.644,9.644
    c5.468,13.96,8.576,29.105,8.576,45.003s-3.108,31.043-8.576,45.004l24.644,9.644C402.294,293.696,406.069,275.305,406.069,256z"/>
    <path style="fill:#D2555A;" d="M105.931,256c0,19.305,3.775,37.696,10.414,54.647l24.644-9.644
    c-5.468-13.96-8.576-29.105-8.576-45.003s3.108-31.043,8.576-45.004l-24.644-9.643C109.706,218.304,105.931,236.695,105.931,256z" />
  </g>

</svg>
