<?xml version="1.0" standalone="no"?>
<!DOCTYPE svg PUBLIC "-//W3C//DTD SVG 20010904//EN"
 "http://www.w3.org/TR/2001/REC-SVG-20010904/DTD/svg10.dtd">
<svg version="1.0" xmlns="http://www.w3.org/2000/svg"
 width="700.000000pt" height="700.000000pt" viewBox="0 0 700.000000 700.000000"
 preserveAspectRatio="xMidYMid meet">
<metadata>
Created by potrace 1.11, written by Peter Selinger 2001-2013
</metadata>
<g transform="translate(0.000000,700.000000) scale(0.100000,-0.100000)"
fill="#000000" stroke="none">
<path d="M3083 6985 c-31 -13 -63 -59 -63 -90 0 -13 -25 -15 -192 -15 -209 0
-408 -7 -448 -14 -14 -3 -49 -8 -79 -11 -30 -4 -63 -9 -75 -11 -12 -3 -34 -7
-51 -10 -16 -3 -82 -18 -145 -34 -642 -161 -1218 -593 -1557 -1168 -127 -216
-246 -512 -288 -717 -54 -266 -63 -367 -64 -712 -1 -194 -3 -223 -16 -223 -31
0 -73 -30 -89 -64 -14 -30 -16 -83 -16 -414 0 -213 4 -392 9 -405 14 -35 62
-77 88 -77 l23 0 0 -212 c1 -306 8 -404 40 -588 88 -510 333 -981 703 -1353
271 -271 568 -459 962 -607 85 -32 327 -93 410 -104 22 -3 54 -7 70 -10 17 -3
46 -8 65 -11 29 -5 407 -14 598 -15 40 0 52 -3 52 -15 0 -31 30 -73 64 -89 30
-14 83 -16 414 -16 231 0 390 4 408 10 31 11 74 65 74 93 0 9 3 17 8 17 245 2
603 10 622 14 14 2 48 7 75 10 87 11 216 37 327 67 758 208 1384 764 1682
1496 40 99 90 249 100 298 2 11 11 47 19 80 9 33 19 80 22 105 3 25 8 52 10
60 22 77 35 305 35 618 0 132 2 152 16 152 28 0 73 33 89 66 23 50 22 781 -1
830 -16 34 -58 64 -89 64 -13 0 -15 20 -15 143 0 159 -9 456 -15 502 -62 480
-225 884 -502 1248 -94 124 -105 137 -218 251 -344 350 -775 589 -1255 696
-214 48 -337 58 -687 59 -195 1 -223 3 -223 16 0 31 -30 73 -64 89 -30 14 -83
16 -418 16 -304 -1 -390 -4 -415 -15z m-67 -426 l1 -77 -86 -17 c-449 -87
-892 -284 -1246 -554 -63 -48 -69 -53 -150 -121 -73 -61 -232 -218 -290 -285
-27 -32 -57 -66 -65 -75 -36 -39 -143 -183 -203 -275 -224 -343 -386 -751
-451 -1137 l-7 -36 -72 3 c-39 1 -75 3 -79 4 -15 2 -1 562 17 676 48 321 149
601 312 870 46 76 144 218 163 235 3 3 30 34 60 70 68 81 186 197 265 262 33
27 69 57 80 66 11 9 68 49 127 88 263 176 597 308 888 350 19 3 40 7 47 9 7 2
52 7 100 11 48 4 89 7 90 8 1 1 114 2 250 2 l248 -1 1 -76z m1619 61 c71 -10
155 -26 265 -50 263 -59 625 -234 844 -410 131 -105 276 -243 349 -334 18 -21
47 -57 66 -80 111 -136 266 -415 333 -601 114 -315 142 -494 143 -915 l0 -245
-74 0 c-86 0 -75 -18 -116 173 -96 448 -338 936 -642 1294 -67 79 -316 322
-396 387 -394 318 -849 531 -1338 626 l-86 17 0 79 0 79 286 -4 c157 -3 322
-9 366 -16z m-942 -1445 c225 -25 512 -124 698 -241 389 -244 662 -635 757
-1084 194 -915 -395 -1816 -1307 -2000 -916 -184 -1797 392 -1989 1300 -105
496 19 1020 335 1410 76 94 195 209 293 284 333 256 781 379 1213 331z m-3173
-2160 c0 -13 27 -145 46 -225 93 -391 306 -833 543 -1130 20 -24 43 -53 51
-64 87 -113 323 -348 454 -451 21 -16 50 -39 65 -51 310 -245 793 -465 1199
-547 66 -14 125 -28 130 -31 6 -3 10 -39 9 -80 l-1 -74 -285 3 c-157 2 -317 8
-356 14 -38 5 -88 13 -110 16 -80 12 -250 57 -364 97 -477 164 -893 492 -1176
928 -50 76 -170 306 -194 370 -7 19 -23 64 -37 100 -27 71 -66 214 -83 300
-17 84 -19 95 -26 142 -3 23 -8 57 -11 73 -2 17 -6 161 -9 322 l-4 291 80 -1
c43 0 79 -1 79 -2z m6114 -275 c0 -243 -6 -326 -30 -480 -31 -197 -114 -442
-219 -645 -264 -514 -717 -917 -1248 -1109 -115 -42 -270 -86 -352 -100 -16
-3 -41 -8 -55 -11 -14 -3 -45 -7 -70 -10 -25 -3 -56 -8 -70 -12 -14 -3 -154
-7 -312 -8 -327 -4 -297 -13 -295 91 l1 62 130 27 c401 84 789 253 1121 489
55 39 107 76 115 82 203 162 401 363 548 554 23 30 45 60 50 65 17 21 141 212
165 255 44 76 153 300 190 390 70 172 159 490 176 631 1 4 36 6 79 5 l77 -1
-1 -275z"/>
</g>
</svg>
